<svg width="220" height="26" viewBox="0 0 220 26" fill="none" xmlns="http://www.w3.org/2000/svg">
<g clip-path="url(#clip0_1_19)">
<path d="M141.709 0.677607V19.9015H149.515V25.3224H135.204V0.677607H141.709Z" fill="#D3DEC4"/>
<path d="M158.903 0.677607V14.0792C158.903 14.8069 158.929 15.5347 158.98 16.2876C159.031 17.0405 159.209 17.7181 159.49 18.3205C159.77 18.9228 160.204 19.4247 160.791 19.8012C161.378 20.1776 162.219 20.3784 163.316 20.3784C164.413 20.3784 165.23 20.1776 165.816 19.8012C166.403 19.4247 166.837 18.9228 167.117 18.3205C167.398 17.7181 167.577 17.0405 167.628 16.2876C167.679 15.5347 167.704 14.8069 167.704 14.0792V0.677607H174.184V14.9575C174.184 18.7973 173.291 21.583 171.505 23.3649C169.719 25.1216 166.99 26 163.291 26C159.592 26 156.837 25.1216 155.051 23.3649C153.265 21.6081 152.372 18.7973 152.372 14.9575V0.677607H158.878H158.903Z" fill="#D3DEC4"/>
<path d="M185.969 10.8417L193.903 0.677607H201.939L192.015 12.3475L202.883 25.3224H194.439L185.969 14.6313V25.3224H179.464V0.677607H185.969V10.8417Z" fill="#D3DEC4"/>
<path d="M220 6.09846H212.27V10.2143H219.566V15.6351H212.27V19.8764H220V25.2973H205.765V0.677607H220V6.09846Z" fill="#D3DEC4"/>
<path d="M6.5051 0.677607V19.9015H14.3112V25.3224H0V0.677607H6.5051Z" fill="#D3DEC4"/>
<path d="M31.9133 6.09846H24.1837V10.2143H31.4796V15.6351H24.1837V19.8764H31.9133V25.2973H17.6786V0.677607H31.9133V6.09846Z" fill="#D3DEC4"/>
<path d="M36.6071 25.3224V0.677607H43.1122L55.1276 15.7355V0.677607H61.6071V25.3224H55.1276L43.1122 10.2645V25.3224H36.6071Z" fill="#D3DEC4"/>
<path d="M80.6122 7.00193C79.898 6.42471 79.1837 6.02317 78.4949 5.7471C77.7806 5.47104 77.0918 5.34556 76.4286 5.34556C75.5867 5.34556 74.898 5.54633 74.3622 5.92278C73.8265 6.32432 73.5714 6.82626 73.5714 7.45367C73.5714 7.88031 73.699 8.25676 73.9796 8.53282C74.2347 8.80888 74.5918 9.05985 75.0255 9.26062C75.4592 9.46139 75.9439 9.63707 76.4796 9.78765C77.0153 9.93822 77.551 10.1139 78.0867 10.2896C80.2041 10.9923 81.7602 11.9208 82.7551 13.0753C83.75 14.2297 84.2347 15.7606 84.2347 17.6429C84.2347 18.8977 84.0306 20.0521 83.5969 21.0811C83.1633 22.11 82.5255 22.9884 81.7092 23.7162C80.8673 24.444 79.8725 25.0212 78.648 25.4228C77.449 25.8243 76.0714 26.0251 74.5408 26.0251C71.3776 26.0251 68.4439 25.0965 65.7398 23.2394L68.5204 18.0695C69.4898 18.9228 70.4592 19.5502 71.4031 19.9517C72.3469 20.3784 73.2908 20.5792 74.2347 20.5792C75.3061 20.5792 76.0969 20.3282 76.6071 19.8514C77.1174 19.3745 77.398 18.8224 77.398 18.2201C77.398 17.8436 77.3214 17.5174 77.1939 17.2664C77.0663 16.9903 76.8367 16.7394 76.5306 16.5135C76.2245 16.2876 75.8163 16.0618 75.3061 15.8861C74.7959 15.7104 74.2092 15.4595 73.4949 15.2336C72.6531 14.9826 71.8367 14.6815 71.0204 14.3803C70.2041 14.0541 69.4898 13.6525 68.852 13.1255C68.2143 12.5985 67.7041 11.9459 67.3214 11.1429C66.9388 10.3398 66.7347 9.33591 66.7347 8.13128C66.7347 6.92664 66.9388 5.7973 67.3469 4.81853C67.7551 3.81467 68.3418 2.98649 69.0816 2.25869C69.8214 1.55598 70.7398 1.00386 71.8112 0.602317C72.8827 0.200773 74.0816 0.0250969 75.4082 0.0250969C76.6582 0.0250969 77.9337 0.200773 79.2857 0.527027C80.6378 0.853282 81.9388 1.35521 83.1633 2.00772L80.5867 7.00193H80.6122Z" fill="#D3DEC4"/>
<path d="M96.7857 13.1255C96.7857 12.1216 96.9643 11.1931 97.3469 10.3398C97.7296 9.48649 98.2398 8.73359 98.9031 8.08108C99.5663 7.42857 100.357 6.92664 101.301 6.57529C102.219 6.22394 103.24 6.02317 104.362 6.02317C105.485 6.02317 106.48 6.19884 107.423 6.57529C108.367 6.95174 109.158 7.45367 109.821 8.08108C110.485 8.73359 111.02 9.48649 111.403 10.3398C111.786 11.1931 111.964 12.1467 111.964 13.1255C111.964 14.1042 111.786 15.0579 111.403 15.9112C111.02 16.7645 110.51 17.5174 109.821 18.1699C109.158 18.8224 108.342 19.3243 107.423 19.6757C106.48 20.0521 105.485 20.2278 104.362 20.2278C103.24 20.2278 102.219 20.0521 101.301 19.6757C100.383 19.3243 99.5918 18.7973 98.9031 18.1699C98.2398 17.5174 97.7041 16.7645 97.3469 15.9112C96.9643 15.0579 96.7857 14.1042 96.7857 13.1255ZM100.51 13.1255C100.51 13.6525 100.612 14.1544 100.816 14.6062C101.02 15.0579 101.301 15.4595 101.658 15.7857C102.015 16.112 102.423 16.388 102.883 16.5637C103.342 16.7394 103.852 16.8398 104.362 16.8398C104.872 16.8398 105.383 16.7394 105.842 16.5637C106.301 16.388 106.709 16.112 107.066 15.7857C107.423 15.4595 107.704 15.0579 107.908 14.6062C108.112 14.1544 108.214 13.6525 108.214 13.1255C108.214 12.5985 108.112 12.0965 107.908 11.6448C107.704 11.1931 107.423 10.7915 107.066 10.4653C106.709 10.139 106.301 9.86293 105.842 9.68726C105.383 9.51158 104.872 9.4112 104.362 9.4112C103.852 9.4112 103.342 9.51158 102.883 9.68726C102.423 9.86293 102.015 10.139 101.658 10.4653C101.301 10.7915 101.02 11.1931 100.816 11.6448C100.612 12.0965 100.51 12.5985 100.51 13.1255Z" fill="#D3DEC4"/>
<path d="M122.041 9.361H117.755V11.6197H121.658V14.5811H117.755V19.8764H114.209V6.39961H122.066V9.361H122.041Z" fill="#D3DEC4"/>
<path d="M92.2449 5.64672H90.9694V0.276062H96.8878V1.53089H92.2449V5.64672Z" fill="#D3DEC4"/>
<path d="M127.73 5.87259H126.454V1.30502H122.27V0.0501938H127.73V5.87259Z" fill="#D3DEC4"/>
<path d="M96.6582 25.9749H91.199V20.1525H92.4745V24.7201H96.6582V25.9749Z" fill="#D3DEC4"/>
<path d="M127.73 25.749H121.837V24.4942H126.454V20.3784H127.73V25.749Z" fill="#D3DEC4"/>
</g>
<defs>
<clipPath id="clip0_1_19">
<rect width="220" height="26" fill="white"/>
</clipPath>
</defs>
</svg>
